<svg width="674" height="143" viewBox="0 0 674 143" fill="none" xmlns="http://www.w3.org/2000/svg">
<g clip-path="url(#clip0_158_518)">
<path d="M70.5898 95.4624C68.7279 92.3321 65.762 87.1145 62.8617 80.8505C56.647 67.4874 53.3188 55.5764 53.292 46.2664C53.2169 20.1146 66.3183 17.966 70.3672 17.9485C86.2882 17.8799 87.5856 39.5283 87.6046 46.1185C87.6574 64.5293 75.4387 87.282 70.5898 95.4624Z" fill="#54A3EE"/>
<path d="M70.6151 87.9131C69.3151 86.2079 67.2443 83.3655 65.2198 79.9525C60.8818 72.6717 58.5607 66.1806 58.5462 61.1052C58.5052 46.8485 67.6637 45.6685 70.4937 45.6563C81.6221 45.6084 82.5194 57.4092 82.5297 61.0019C82.5586 71.0386 74.008 83.4504 70.6151 87.9131Z" fill="white"/>
<path d="M79.9022 98.1166C80.6818 95.3964 82.056 90.9719 84.064 86.1865C88.3327 75.9559 93.337 68.5995 98.645 64.9019C113.555 54.5155 121.89 64.1106 124.096 67.3312C132.771 79.9952 121.098 89.5777 117.341 92.1951C106.844 99.5072 87.209 98.7517 79.9022 98.1166Z" fill="#54A3EE"/>
<path d="M83.18 96.2331C83.6568 94.9011 84.4858 92.7312 85.6455 90.3679C88.1126 85.3163 90.8618 81.6232 93.6514 79.6793C101.487 74.219 105.393 78.5699 106.406 80.0489C110.388 85.8643 104.209 90.8366 102.235 92.2126C96.718 96.0566 86.8436 96.3092 83.18 96.2331Z" fill="white"/>
<path d="M62.5256 98.1166C61.7459 95.3964 60.3717 90.9719 58.3637 86.1865C54.095 75.9559 49.0908 68.5995 43.7827 64.9019C28.8725 54.5155 20.5378 64.1106 18.3317 67.3312C9.65673 79.9952 21.3293 89.5777 25.0867 92.1951C35.5835 99.5072 55.2187 98.7517 62.5256 98.1166Z" fill="#54A3EE"/>
<path d="M59.2478 96.2331C58.7709 94.9011 57.9419 92.7312 56.7822 90.3679C54.3152 85.3163 51.566 81.6232 48.7763 79.6793C40.9404 74.219 37.0347 78.5699 36.0219 80.0489C32.0393 85.8643 38.2185 90.8366 40.1932 92.2126C45.7097 96.0566 55.5841 96.3092 59.2478 96.2331Z" fill="white"/>
<path d="M175.9 98L151.5 49.2L147.3 39.2H146.9L148.1 57.9V98H141.1V28H148.1L172.4 76.9L176.6 86.9H177L175.9 68.2V28H182.9V98H175.9ZM209.108 98C205.174 98 202.174 96.9667 200.108 94.9C198.108 92.8333 197.108 89.8667 197.108 86V60C197.108 56.2 198.108 53.2667 200.108 51.2C202.174 49.0667 205.174 48 209.108 48H218.608C222.541 48 225.508 49.0667 227.508 51.2C229.574 53.2667 230.608 56.2 230.608 60V70.4L225.108 75.3H204.108V86.2C204.108 89.8 205.841 91.6 209.308 91.6H219.808L227.908 89.2L229.708 95.3L219.808 98H209.108ZM204.108 59.9V68.9H222.208L223.608 67.8V59.9C223.608 56.3 221.874 54.5 218.408 54.5H209.308C205.841 54.5 204.108 56.3 204.108 59.9ZM256.553 67.5L263.353 54.9L266.153 46.9L273.653 48L270.253 56L261.453 71.8L276.253 98H268.653L256.653 76H256.253L244.153 98H236.553L251.353 71.8L238.153 48H245.853L256.153 67.5H256.553Z" fill="#54A4EE"/>
<path d="M300.024 30.4C296.558 30.4 294.824 32.2 294.824 35.8V48H308.024V54.6H294.824V98H287.824V54.6H279.024V48.9L287.824 48V35.9C287.824 32.1 288.824 29.1667 290.824 27.1C292.891 24.9667 295.891 23.9 299.824 23.9H303.824L312.524 26.3L310.724 32.4L303.824 30.4H300.024ZM340.22 54.5H329.62C326.154 54.5 324.42 56.3 324.42 59.9V86.2C324.42 89.8 326.154 91.6 329.62 91.6H340.22C343.687 91.6 345.42 89.8 345.42 86.2V59.9C345.42 56.3 343.687 54.5 340.22 54.5ZM340.42 98H329.42C325.487 98 322.487 96.9667 320.42 94.9C318.42 92.8333 317.42 89.8667 317.42 86V60C317.42 56.2 318.42 53.2667 320.42 51.2C322.487 49.0667 325.487 48 329.42 48H340.42C344.354 48 347.32 49.0667 349.32 51.2C351.387 53.2667 352.42 56.2 352.42 60V86C352.42 89.8667 351.387 92.8333 349.32 94.9C347.32 96.9667 344.354 98 340.42 98ZM365.588 56.1L364.588 48.2L371.388 47.3L372.588 56.5V86.2C372.588 89.8 374.322 91.6 377.788 91.6H380.688L393.588 83.2V48H400.588V90.1L401.588 98L394.788 98.8L393.688 90.9L382.488 98H377.588C373.655 98 370.655 96.9667 368.588 94.9C366.588 92.8333 365.588 89.8667 365.588 86V56.1ZM449.807 90.4L450.807 98L443.907 98.8L442.807 90V59.9C442.807 56.3 441.074 54.5 437.607 54.5H434.407L421.807 61.5V98H414.807V56.3L413.807 48.2L420.607 47.3L421.507 54.4L432.807 48H437.807C441.674 48 444.64 49.0667 446.707 51.2C448.774 53.2667 449.807 56.2 449.807 60V90.4ZM477.826 91.6L490.526 84.6V56.7L479.126 54.5H474.626C471.159 54.5 469.426 56.3 469.426 59.9V86.2C469.426 89.8 471.159 91.6 474.626 91.6H477.826ZM490.526 32L489.426 23.7L496.326 22.8L497.526 32V90.2L498.526 98.1L491.726 98.9L490.726 91.6L479.426 98H474.426C470.559 98 467.592 96.9667 465.526 94.9C463.459 92.7667 462.426 89.8 462.426 86V60C462.426 56.2 463.459 53.2667 465.526 51.2C467.592 49.0667 470.559 48 474.426 48H479.126L490.526 50.2V32ZM523.268 98C519.335 98 516.335 96.9667 514.268 94.9C512.268 92.8333 511.268 89.8667 511.268 86V60C511.268 56.2 512.268 53.2667 514.268 51.2C516.335 49.0667 519.335 48 523.268 48H532.768C536.701 48 539.668 49.0667 541.668 51.2C543.735 53.2667 544.768 56.2 544.768 60V70.4L539.268 75.3H518.268V86.2C518.268 89.8 520.001 91.6 523.468 91.6H533.968L542.068 89.2L543.868 95.3L533.968 98H523.268ZM518.268 59.9V68.9H536.368L537.768 67.8V59.9C537.768 56.3 536.035 54.5 532.568 54.5H523.468C520.001 54.5 518.268 56.3 518.268 59.9ZM579.213 48V55.4L575.813 55.2L563.213 60.7V98H556.213V56.3L555.213 48.2L561.713 47.3L562.813 54.5L574.213 48H579.213ZM606.633 54.5H598.433C596.566 54.5 595.199 54.9667 594.333 55.9C593.466 56.7667 593.033 58.3333 593.033 60.6C593.033 61.2 593.099 61.7667 593.233 62.3C593.433 62.7667 593.766 63.2667 594.233 63.8C594.766 64.2667 595.133 64.6 595.333 64.8C595.599 65 601.166 68.6 612.033 75.6C615.366 77.7333 617.033 81.1 617.033 85.7C617.033 93.9 612.899 98 604.633 98H595.333L585.333 95.3L587.133 89.2L595.333 91.6H604.833C608.299 91.6 610.033 89.8 610.033 86.2C610.033 84.1333 609.866 82.8333 609.533 82.3C609.199 81.7 608.466 81.0333 607.333 80.3L592.833 70.8C590.299 69.1333 588.533 67.5667 587.533 66.1C586.533 64.6333 586.033 62.7 586.033 60.3C586.033 56.3667 587.033 53.3333 589.033 51.2C591.099 49.0667 594.099 48 598.033 48H606.633L616.533 50.8L614.833 56.9L606.633 54.5Z" fill="white"/>
</g>
<defs>
<clipPath id="clip0_158_518">
<rect width="674" height="143" fill="white"/>
</clipPath>
</defs>
</svg>
